<svg width="82" height="85" viewBox="0 0 82 85" fill="none" xmlns="http://www.w3.org/2000/svg">
<path d="M64.2812 40.4531H67.6562V81H64.2812V40.4531ZM77.7812 40.4531H81.1562V81H77.7812V40.4531ZM71.0312 40.4531H74.4062V81H71.0312V40.4531ZM60.9062 40.4531V81C54.9688 83.25 48.8125 84.375 42.4375 84.375C36.9062 84.375 31.6094 83.3594 26.5469 81.3281C21.4844 79.2969 17.0312 76.4844 13.1875 72.8906C9.34375 69.2656 6.26562 64.7969 3.95312 59.4844C1.67188 54.1406 0.53125 48.375 0.53125 42.1875C0.53125 36.4688 1.64062 31.0156 3.85938 25.8281C6.10938 20.6094 9.10938 16.125 12.8594 12.375C16.6406 8.59375 21.125 5.59375 26.3125 3.375C31.5312 1.125 37 0 42.7188 0C49.8438 0 56.4688 1.65625 62.5938 4.96875C68.7188 8.28125 73.7188 12.7813 77.5938 18.4688L74.7812 20.2969C71.2188 15.0781 66.6094 10.9531 60.9531 7.92188C55.3281 4.89062 49.25 3.375 42.7188 3.375C37.4688 3.375 32.4375 4.40625 27.625 6.46875C22.8438 8.5 18.7188 11.25 15.25 14.7188C11.7812 18.1875 9.01562 22.3281 6.95312 27.1406C4.92188 31.9219 3.90625 36.9375 3.90625 42.1875C3.90625 47.8438 4.95312 53.125 7.04688 58.0312C9.17188 62.9375 11.9844 67.0469 15.4844 70.3594C19.0156 73.6719 23.1094 76.2812 27.7656 78.1875C32.4219 80.0625 37.2656 81 42.2969 81C47.5781 81 52.6562 80.1719 57.5312 78.5156V75.2812C52.875 76.8438 47.9844 77.625 42.8594 77.625C39.1406 77.625 35.5156 77.1094 31.9844 76.0781C28.4844 75.0156 25.2344 73.4688 22.2344 71.4375C19.2656 69.375 16.6562 66.9375 14.4062 64.125C12.1875 61.2812 10.4375 57.9844 9.15625 54.2344C7.90625 50.4531 7.28125 46.4375 7.28125 42.1875C7.28125 35.7812 8.85938 29.8594 12.0156 24.4219C15.2031 18.9844 19.5156 14.6875 24.9531 11.5312C30.3906 8.34375 36.3125 6.75 42.7188 6.75C48.7188 6.75 54.2969 8.15625 59.4531 10.9688C64.6094 13.75 68.8125 17.5312 72.0625 22.3125L69.25 24.1406C66.3125 19.8281 62.5 16.4219 57.8125 13.9219C53.1562 11.3906 48.125 10.125 42.7188 10.125C38.375 10.125 34.2188 10.9688 30.25 12.6562C26.2812 14.3438 22.8594 16.625 19.9844 19.5C17.1406 22.3438 14.875 25.75 13.1875 29.7188C11.5 33.6875 10.6562 37.8438 10.6562 42.1875C10.6562 46.0938 11.2188 49.7656 12.3438 53.2031C13.5 56.6094 15.0781 59.5938 17.0781 62.1562C19.1094 64.6875 21.4688 66.875 24.1562 68.7188C26.8438 70.5312 29.7656 71.9062 32.9219 72.8438C36.1094 73.7812 39.375 74.25 42.7188 74.25C47.9062 74.25 52.8438 73.375 57.5312 71.625V68.25C52.9062 70.0312 48.0781 70.9219 43.0469 70.9219C39.2344 70.9219 35.5938 70.2812 32.125 69C28.6562 67.6875 25.5625 65.8438 22.8438 63.4688C20.1562 61.0938 18.0156 58.0625 16.4219 54.375C14.8281 50.6875 14.0312 46.625 14.0312 42.1875C14.0312 37 15.3125 32.2031 17.875 27.7969C20.4375 23.3906 23.9219 19.9063 28.3281 17.3438C32.7344 14.7812 37.5312 13.5 42.7188 13.5C47.5625 13.5 52.0625 14.625 56.2188 16.875C60.4062 19.125 63.8125 22.1875 66.4375 26.0625L63.625 27.8906C61.3125 24.5156 58.3125 21.8438 54.625 19.875C50.9688 17.875 47 16.875 42.7188 16.875C38.125 16.875 33.8906 18.0156 30.0156 20.2969C26.1406 22.5469 23.0625 25.6094 20.7812 29.4844C18.5312 33.3594 17.4062 37.5938 17.4062 42.1875C17.4062 45.375 17.8594 48.3438 18.7656 51.0938C19.6719 53.8438 20.9219 56.2188 22.5156 58.2188C24.1094 60.2188 25.9688 61.9219 28.0938 63.3281C30.25 64.7344 32.5625 65.7969 35.0312 66.5156C37.5 67.2031 40.0625 67.5469 42.7188 67.5469C48 67.5469 52.9375 66.5 57.5312 64.4062V61.1719C53.0938 63.1406 48.2969 64.125 43.1406 64.125C40.1719 64.125 37.375 63.6719 34.75 62.7656C32.125 61.8594 29.75 60.5312 27.625 58.7812C25.5312 57.0312 23.8594 54.7344 22.6094 51.8906C21.3906 49.0156 20.7812 45.7812 20.7812 42.1875C20.7812 39.2188 21.3594 36.3906 22.5156 33.7031C23.6719 30.9844 25.2344 28.6406 27.2031 26.6719C29.1719 24.7031 31.5 23.1406 34.1875 21.9844C36.9062 20.8281 39.75 20.25 42.7188 20.25C46.4375 20.25 49.8906 21.125 53.0781 22.875C56.2656 24.5938 58.8594 26.9375 60.8594 29.9062L58.0938 31.7344C56.4062 29.2344 54.2031 27.2656 51.4844 25.8281C48.7969 24.3594 45.875 23.625 42.7188 23.625C37.5938 23.625 33.2188 25.4375 29.5938 29.0625C25.9688 32.6875 24.1562 37.0625 24.1562 42.1875C24.1562 45.3438 24.6719 48.1406 25.7031 50.5781C26.7344 52.9844 28.1406 54.9219 29.9219 56.3906C31.7344 57.8281 33.7344 58.9219 35.9219 59.6719C38.1406 60.3906 40.5156 60.75 43.0469 60.75C48.2344 60.75 53.0625 59.6719 57.5312 57.5156V40.4531H60.9062Z" fill="url(#paint0_linear)"/>
<defs>
<linearGradient id="paint0_linear" x1="-2" y1="88.6582" x2="85.0005" y2="89.2565" gradientUnits="userSpaceOnUse">
<stop stop-color="#FF8A00"/>
<stop offset="0.46543" stop-color="#EF5343"/>
<stop offset="1" stop-color="#E52E71"/>
</linearGradient>
</defs>
</svg>